<?xml version="1.0" encoding="UTF-8"?>
<svg width="480px" height="160px" viewBox="0 0 480 160" version="1.1" xmlns="http://www.w3.org/2000/svg" xmlns:xlink="http://www.w3.org/1999/xlink">
    <title>logo</title>
    <g id="🎨-/-The-Maypole-Site" stroke="none" stroke-width="1" fill="none" fill-rule="evenodd">
        <g id="01-Landing-Page-with-Archives" transform="translate(-480.000000, -64.000000)">
            <g id="logo" transform="translate(480.000000, 64.000000)">
                <g id="2743">
                    <path d="M17.2137931,158.896552 C5.73793103,149.627586 7.5268527e-14,138.151724 7.5268527e-14,124.468966 C7.5268527e-14,103.944828 10.27664,98.7667305 11.9159483,76.8 C13.5552565,54.8332695 2.64698276,42.6976293 11.9159483,23.9993534 C21.1849138,5.30107759 40.3862069,0 67.5310345,0 C94.6758621,0 128.438793,23.8331897 128.438793,50.3172414 C128.438793,76.8012931 114,84.7448276 114,96.4461207 C114,108.147414 114.535345,115.2 128.438793,131.089655 C137.707759,141.682759 142.343103,150.951724 142.344828,158.896552 L17.2137931,158.896552 Z" id="bg" fill="#5E7353"></path>
                    <g id="wall" transform="translate(17.213793, 0.000000)">
                        <rect id="Rectangle" fill="#DECBAF" x="0" y="0" width="100.634483" height="158.896552"></rect>
                        <rect id="Rectangle-Copy-41" fill="#F2DDBE" x="0" y="0" width="100.634483" height="60.9103448"></rect>
                        <rect id="Rectangle" fill="#F2DDBE" x="0" y="60.9103448" width="100.634483" height="2.64827586"></rect>
                        <rect id="Rectangle-Copy-30" fill="#DAC6AA" x="0" y="63.5586207" width="100.634483" height="1.32413793"></rect>
                    </g>
                    <g id="grass" transform="translate(55.613793, 153.600000)">
                        <rect id="Rectangle" fill="#8DB477" x="0" y="0" width="62.2344828" height="5.29655172"></rect>
                        <rect id="Rectangle-Copy-40" fill="#6E9A55" x="0" y="3.97241379" width="62.2344828" height="1.32413793"></rect>
                    </g>
                    <g id="door" transform="translate(26.482759, 79.448276)">
                        <rect id="Rectangle" fill="#121212" x="2.64827586" y="0" width="23.8344828" height="47.6689655"></rect>
                        <rect id="Rectangle-Copy-21" fill="#444444" x="5.29655172" y="2.64827586" width="18.537931" height="45.0206897"></rect>
                        <rect id="Rectangle-Copy-13" stroke="#121212" stroke-width="1.32413793" fill="#777777" x="9.26896552" y="6.62068966" width="10.5931034" height="5.29655172"></rect>
                        <rect id="Rectangle" fill="#A38766" x="0" y="51.6413793" width="29.1310345" height="27.8068966"></rect>
                        <rect id="Rectangle" fill="#121212" x="0" y="47.6689655" width="29.1310345" height="3.97241379"></rect>
                        <rect id="Rectangle-Copy-9" fill="#121212" x="0" y="55.6137931" width="29.1310345" height="3.97241379"></rect>
                        <rect id="Rectangle-Copy-20" fill="#121212" x="0" y="63.5586207" width="29.1310345" height="3.97241379"></rect>
                        <rect id="Rectangle-Copy-26" fill="#121212" x="0" y="71.5034483" width="29.1310345" height="3.97241379"></rect>
                        <rect id="Rectangle" fill="#CBB294" x="0" y="30.4551724" width="5.29655172" height="29.1310345"></rect>
                        <rect id="Rectangle-Copy-24" fill="#A38766" x="0" y="59.5862069" width="5.29655172" height="19.862069"></rect>
                        <rect id="Rectangle-Copy-25" fill="#A38766" x="23.8344828" y="59.5862069" width="5.29655172" height="19.862069"></rect>
                        <rect id="Rectangle-Copy-38" fill="#927A5E" x="23.8344828" y="59.5862069" width="5.29655172" height="1.32413793"></rect>
                        <rect id="Rectangle-Copy-39" fill="#927A5E" x="2.35214147e-15" y="59.5862069" width="5.29655172" height="1.32413793"></rect>
                        <polygon id="Rectangle-Copy-22" fill="#121212" points="5.29655172 30.4551724 14.5655172 47.6689655 5.29655172 47.6689655"></polygon>
                        <polygon id="Rectangle-Copy-22" fill="#121212" points="29.1310345 51.6413793 38.4 79.4482759 29.1310345 79.4482759"></polygon>
                        <polygon id="Rectangle-Copy-23" fill="#121212" points="5.29655172 51.6413793 9.93103448 55.6137931 5.29655172 55.6137931"></polygon>
                        <polygon id="Rectangle-Copy-27" fill="#121212" points="5.29655172 59.5862069 9.93103448 63.5586207 5.29655172 63.5586207"></polygon>
                        <polygon id="Rectangle-Copy-28" fill="#121212" points="5.29655172 68.1931034 9.93103448 72.1655172 5.29655172 72.1655172"></polygon>
                        <polygon id="Rectangle-Copy-29" fill="#121212" points="5.29655172 75.4758621 9.93103448 79.4482759 5.29655172 79.4482759"></polygon>
                        <rect id="Rectangle-Copy-3" fill="#CBB294" x="23.8344828" y="30.4551724" width="5.29655172" height="29.1310345"></rect>
                    </g>
                    <g id="top-left-window" transform="translate(30.455172, 26.482759)">
                        <rect id="Rectangle-Copy-4" fill="#121212" x="0" y="0" width="21.1862069" height="23.8344828"></rect>
                        <rect id="Rectangle-Copy-11" fill="#FFF9DC" x="2.64827586" y="2.64827586" width="15.8896552" height="18.537931"></rect>
                        <rect id="Rectangle-Copy-31" fill="#121212" x="0" y="10.5931034" width="21.1862069" height="2.64827586"></rect>
                    </g>
                    <g id="top-right-window" transform="translate(72.827586, 26.482759)">
                        <rect id="Rectangle-Copy-5" fill="#121212" x="0" y="0" width="31.7793103" height="23.8344828"></rect>
                        <rect id="Rectangle-Copy-12" fill="#FFF9DC" x="2.64827586" y="2.64827586" width="26.4827586" height="18.537931"></rect>
                        <rect id="Rectangle-Copy-16" fill="#121212" transform="translate(15.889655, 11.917241) rotate(-90.000000) translate(-15.889655, -11.917241) " x="14.5655172" y="-3.97241379" width="2.64827586" height="31.7793103"></rect>
                        <rect id="Rectangle-Copy-16" fill="#121212" x="14.5655172" y="7.5268527e-14" width="2.64827586" height="23.8344828"></rect>
                    </g>
                    <g id="main-window" transform="translate(72.827586, 79.448276)">
                        <rect id="Rectangle-Copy-6" fill="#121212" x="0" y="-7.5268527e-14" width="31.7793103" height="42.3724138"></rect>
                        <rect id="Rectangle-Copy-14" fill="#F6EEC6" x="2.64827586" y="2.64827586" width="26.4827586" height="37.0758621"></rect>
                        <rect id="Rectangle-Copy-17" fill="#FFEF9A" transform="translate(15.889655, 3.972414) rotate(-90.000000) translate(-15.889655, -3.972414) " x="14.5655172" y="-9.26896552" width="2.64827586" height="26.4827586"></rect>
                        <rect id="Rectangle-Copy-19" fill="#FFEF9A" transform="translate(15.889655, 27.806897) rotate(-90.000000) translate(-15.889655, -27.806897) " x="14.5655172" y="14.5655172" width="2.64827586" height="26.4827586"></rect>
                        <rect id="Rectangle-Copy-18" fill="#FFEF9A" x="2.64827586" y="5.29655172" width="2.64827586" height="34.4275862"></rect>
                        <rect id="Rectangle-Copy-15" fill="#121212" x="14.5655172" y="2.64827586" width="2.64827586" height="37.0758621"></rect>
                        <rect id="Rectangle-Copy-16" fill="#121212" transform="translate(15.889655, 25.158621) rotate(-90.000000) translate(-15.889655, -25.158621) " x="14.5655172" y="9.26896552" width="2.64827586" height="31.7793103"></rect>
                    </g>
                    <g id="top" transform="translate(17.213793, 0.000000)">
                        <rect id="Rectangle-Copy" fill="#333333" x="0" y="0" width="100.634483" height="15.8896552"></rect>
                        <g id="Group" transform="translate(12.579310, 3.972414)">
                            <rect id="Rectangle" fill="#121212" x="1.32413793" y="0" width="5.29655172" height="11.9172414"></rect>
                            <rect id="Rectangle-Copy-7" fill="#555555" x="0" y="0" width="1.32413793" height="11.9172414"></rect>
                        </g>
                        <g id="Group-Copy" transform="translate(29.793103, 3.972414)">
                            <rect id="Rectangle" fill="#121212" x="1.32413793" y="0" width="5.29655172" height="11.9172414"></rect>
                            <rect id="Rectangle-Copy-7" fill="#555555" x="0" y="0" width="1.32413793" height="11.9172414"></rect>
                        </g>
                        <g id="Group-Copy-2" transform="translate(47.006897, 3.972414)">
                            <rect id="Rectangle" fill="#121212" x="1.32413793" y="0" width="5.29655172" height="11.9172414"></rect>
                            <rect id="Rectangle-Copy-7" fill="#555555" x="0" y="0" width="1.32413793" height="11.9172414"></rect>
                        </g>
                        <g id="Group-Copy-3" transform="translate(64.220690, 3.972414)">
                            <rect id="Rectangle" fill="#121212" x="1.32413793" y="0" width="5.29655172" height="11.9172414"></rect>
                            <rect id="Rectangle-Copy-7" fill="#555555" x="0" y="0" width="1.32413793" height="11.9172414"></rect>
                        </g>
                        <g id="Group-Copy-4" transform="translate(81.434483, 3.972414)">
                            <rect id="Rectangle" fill="#121212" x="1.32413793" y="0" width="5.29655172" height="11.9172414"></rect>
                            <rect id="Rectangle-Copy-7" fill="#555555" x="0" y="0" width="1.32413793" height="11.9172414"></rect>
                        </g>
                        <rect id="Rectangle-Copy-2" fill="#121212" x="0" y="0" width="100.634483" height="3.97241379"></rect>
                    </g>
                    <g id="bottom-left-window" transform="translate(72.827586, 132.413793)">
                        <rect id="Rectangle-Copy-8" fill="#A38766" x="0" y="0" width="13.2413793" height="15.8896552"></rect>
                        <rect id="Rectangle-Copy-32" stroke="#121212" stroke-width="2.64827586" x="1.32413793" y="1.32413793" width="10.5931034" height="13.2413793"></rect>
                        <rect id="Rectangle-Copy-16" fill="#121212" x="0" y="6.62068966" width="13.2413793" height="2.64827586"></rect>
                    </g>
                    <g id="bottom-right-window" transform="translate(91.365517, 132.413793)">
                        <rect id="Rectangle-Copy-10" fill="#A38766" x="0" y="0" width="13.2413793" height="15.8896552"></rect>
                        <rect id="Rectangle-Copy-33" stroke="#121212" stroke-width="2.64827586" x="1.32413793" y="1.32413793" width="10.5931034" height="13.2413793"></rect>
                        <rect id="Rectangle-Copy-34" fill="#121212" x="0" y="6.62068966" width="13.2413793" height="2.64827586"></rect>
                    </g>
                </g>
                <path d="M192.592,102.056 C195.107692,94.4055385 197.178036,88.5576805 199.181495,82.815858 L199.681185,81.3816296 C200.761778,78.2746667 201.832,75.1573333 202.952,71.76 L203.288,71.76 C203.295593,72.1035932 203.303251,72.4471221 203.31096,72.7903183 L203.334227,73.8186407 C203.548679,83.2308624 203.792,92.1886102 203.792,95.112 C203.848,98.304 203.68,98.864 203.4,99.144 C203.26271,99.2812903 203.083347,99.3554714 202.320392,99.4439029 L202.059429,99.4723926 C201.590052,99.5209657 200.943226,99.5757419 200.04,99.648 C199.704,99.648 199.928,102.056 200.152,102.056 L200.237866,102.055383 C201.218647,102.046473 209.686609,101.944 210.008,101.944 C211.020978,101.944 212.141033,101.950692 213.263468,101.960805 L213.875312,101.966641 C216.929418,101.997319 219.859633,102.049014 220.542105,102.055356 L220.648,102.056 L220.648,102.056 C220.928,102.056 220.872,99.648 220.704,99.648 C217.904,99.536 217.512,99.48 217.288,99.256 C216.952,98.92 216.784,98.08 216.672,95 C216.605193,93.4968421 216.478611,88.5666014 216.363565,83.5370858 L216.33343,82.2057108 C216.26728,79.2521071 216.207298,76.3657544 216.168,74.224 C216.112,71.536 216.112,70.864 216.336,70.64 C216.616,70.36 217.064,70.36 219.976,70.304 C220.2,70.304 220.256,68.064 220.032,68.064 C219.248,68.008 206.928,67.728 204.912,67.728 L204.624821,67.728 L204.624821,67.728 L203.62972,67.7287791 C201.579152,67.7331423 201.341576,67.7619394 201.104,67.952 C199.2,74.672 197.744,79.712 195.056,87.216 L194.72,87.216 C194.104848,85.3705455 193.015638,82.3439614 191.875419,79.247133 L191.601003,78.5031142 L191.601003,78.5031142 L191.325928,77.7598107 C189.630274,73.185326 187.971152,68.846303 187.72,68.344 C187.513231,67.9304615 187.306462,67.9463669 186.835419,67.9512608 L183.845314,67.9510827 C183.746597,67.9510253 183.646017,67.9509644 183.543681,67.9508997 L182.578136,67.9502083 C182.466229,67.9501188 182.352889,67.9500247 182.238222,67.9499259 L181.535167,67.9492751 C181.415625,67.9491566 181.294972,67.949033 181.173315,67.948904 L180.432189,67.9480637 C179.805979,67.9473067 179.16005,67.9464042 178.507838,67.9453281 L177.723029,67.9439516 C177.592012,67.9437077 177.460958,67.9434565 177.329976,67.9431976 L176.545796,67.941551 C173.028571,67.9337143 169.72,67.92 168.736,67.896 C168.568,67.896 168.456,70.08 168.68,70.08 C171.928,70.472 172.6,70.64 172.936,70.976 C173.16,71.2 173.104,71.592 173.048,75.12 C173.025185,77.1733333 172.983781,79.682118 172.93136,82.2335904 L172.901719,83.6270552 C172.830222,86.8767737 172.743111,90.0740741 172.656,92.368 C172.488,96.288 171.48,97.912 170.808,98.584 C170.36,99.032 169.464,99.48 167.952,99.704 C167.728,99.704 167.616,102 168.008,101.944 L168.078179,101.944079 L168.078179,101.944079 L168.28603,101.944699 C170.08389,101.951304 178.305913,102.003652 179.824,102.056 C180.104,102.056 180.16,99.816 179.88,99.76 C178.368,99.368 177.304,98.976 176.744,98.416 C176.016,97.688 175.68,96.12 175.68,93.264 L175.680853,91.3006424 C175.680924,91.2273878 175.681001,91.1526514 175.681084,91.0764527 L175.681665,90.601869 C175.681776,90.5198991 175.681895,90.4365059 175.682021,90.3517089 L175.682878,89.8262369 C175.689752,85.9418608 175.713049,79.5339016 175.792,72.152 L176.128,72.152 C177.512393,75.426623 179.770107,81.0807267 181.914324,86.7014247 L182.356012,87.8630597 C184.553118,93.6609363 186.555934,99.2449836 187.272,101.944 C187.379852,102.267556 187.64349,102.383396 189.613081,102.391533 L190.325767,102.391146 C192.334906,102.38321 192.487724,102.31669 192.592,102.056 Z M267.056,102.112 C267.336,102.112 267.448,99.872 267.112,99.872 C264.816,99.76 264.2,99.704 263.584,99.088 C263.08,98.584 262.576,97.744 261.512,95.056 C258.264,86.88 254.064,76.352 250.816,67.728 C250.76,67.504 250.2,67.392 247.568,67.392 C243.256,67.392 241.352,67.784 240.848,68.12 C238.16,75.792 234.52,84.472 231.496,91.92 C230.264,94.944 229.144,96.848 227.968,98.024 C226.904,99.088 225.672,99.592 224.552,99.816 C224.328,99.872 224.384,102 224.608,102 C225.784,102 227.208889,101.993778 228.698074,101.991704 L230.390798,101.991667 C232.846903,101.995722 235.29,102.021 236.928,102.112 C237.152,102.112 237.264,99.928 237.04,99.872 C234.128,99.48 232.896,99.088 232.896,97.128 C232.896,96.288 232.952,95.56 233.232,94.664 C233.456,93.88 233.624,93.376 233.904,92.816 C234.072,92.48 234.184,92.368 234.52,92.368 C235.416,92.312 236.256,92.312 237.208,92.312 C239.056,92.312 243.984,92.48 247.288,92.592 C248.263333,95.056 248.721056,96.2495 249.092509,97.337125 L249.192,97.632 L249.192,97.632 C249.472,98.472 249.36,99.032 249.136,99.256 C248.8,99.592 248.352,99.648 246.112,99.816 C245.832,99.816 246,102.056 246.28,102.056 C247.7255,102.007 249.449687,101.990156 251.232158,101.986711 L252.769123,101.986602 C254.566906,101.989281 256.36,102 257.928,102 C260.616,102 263.92,102.056 267.056,102.112 Z M246.448,90.296 C243.088,90.296 238.552,90.072 235.136,89.848 C236.984,85.256 238.888,80.16 240.68,75.344 L240.904,75.344 C241.524941,77.0997647 242.317806,79.2484983 243.122952,81.4051779 L243.494848,82.3997307 C244.671599,85.5420554 245.822118,88.5748235 246.448,90.296 Z M284.792,102 L285.209712,102.000004 L285.209712,102.000004 L287.482989,102.000774 C290.505702,102.003226 293.9088,102.01344 295.824,102.056 C296.048,102.056 296.048,99.592 295.824,99.592 C292.856,99.48 292.184,99.368 291.96,99.144 C291.736,98.92 291.568,98.416 291.512,96.512 L291.512448,95.249536 C291.51424,93.65824 291.5232,92.368 291.568,90.576 C291.624,88.392 291.904,87.384 293.024,85.48 C294.690824,82.6767059 295.511979,81.3341107 296.267562,80.1173859 L296.463696,79.8019571 C296.757204,79.3304637 297.051059,78.8604706 297.392,78.312 C299.688,74.616 301.424,72.152 303.664,71.032 C304.224,70.752 304.896,70.528 305.512,70.304 C305.736,70.192 305.624,67.896 305.344,67.896 C303.274435,67.9373913 301.939115,67.948189 300.976239,67.9510058 L300.08,67.952 L300.08,67.952 C298.232,67.896 295.376,67.784 293.472,67.672 C293.192,67.672 292.968,69.968 293.304,69.968 C295.824,70.136 296.776,70.696 296.776,72.432 C296.776,73.664 296.328,75.008 295.32,76.912 C294.144,79.152 292.8,81.224 290.392,85.2 L290.28,85.2 C287.256,80.608 285.016,76.408 282.888,72.152 C282.552,71.536 282.384,70.92 282.664,70.64 C282.888,70.416 283.336,70.304 285.912,70.136 C286.192,70.136 286.192,67.784 285.856,67.784 C283.341091,67.8501818 280.348202,67.890292 277.339512,67.9111777 L275.951447,67.9194771 C274.796596,67.9252973 273.649926,67.9284294 272.537733,67.9292631 L271.221333,67.9291852 C268.844444,67.9271111 266.685333,67.9146667 265.024,67.896 C264.688,67.896 264.688,70.36 264.912,70.36 C266.592,70.472 267.376,70.696 267.936,71.256 C268.44,71.76 269.168,72.88 270.232,74.672 C272.92,79.208 275.048,82.792 277.904,87.384 C278.464,88.28 278.52,88.616 278.52,89.736 C278.52,91.024 278.464,93.264 278.408,95.56 C278.352,97.52 278.128,98.64 277.736,99.032 C277.344,99.424 276.784,99.592 273.928,99.704 C273.704,99.704 273.704,102.056 273.984,102.056 C276.952,102.056 281.488,102 284.792,102 Z M308.576,102.168 C311.049333,102.028 314.339333,102.004667 317.635815,102.000778 L318.952833,102.000029 C319.171753,102 319.390222,102 319.608,102 C320.7344,102 322.126309,101.988937 323.559466,101.973765 L324.343931,101.965124 C327.225417,101.932251 330.1088,101.888 331.2,101.888 C331.536,101.888 331.536,99.368 331.256,99.368 C326.832,99.256 326.384,99.144 326.16,98.92 L326.140096,98.8998623 L326.140096,98.8998623 L326.10299,98.859456 C325.938062,98.6658613 325.88675,98.358649 325.880642,96.124826 L325.88,88.56 C325.88,88.224 325.936,88.112 326.16,88.112 C326.496,88.112 327.56,88.392 330.192,88.392 C337.248,88.392 342.12,86.544 345.088,83.576 C347.16,81.504 348,79.544 348,76.912 C348,74.952 347.44,73.216 346.04,71.816 C343.352,69.128 339.432,67.896 329.52,67.896 L329.091837,67.896 L329.091837,67.896 L327.772177,67.8969794 C321.353584,67.9038049 313.441753,67.9441951 309.809812,67.9510206 L308.912,67.952 L308.912,67.952 C308.632,67.952 308.632,70.36 308.912,70.36 C311.712,70.36 312.216,70.472 312.44,70.696 C312.598118,70.8541176 312.700429,72.7980346 312.766631,74.8732603 L312.78244,75.3938449 C312.802547,76.0890519 312.818824,76.7835294 312.832,77.416 C312.888,82.512 312.944,84.416 312.944,89.68 C312.944,96.512 312.832,98.752 312.44,99.144 C312.295758,99.2882424 312.121792,99.3730395 311.535313,99.4443262 L311.310568,99.4690001 C310.743287,99.5256125 309.865697,99.5767273 308.464,99.648 C308.184,99.648 308.296,102.168 308.576,102.168 Z M328.288,85.984 C326.888,85.984 326.328,85.872 326.104,85.648 C325.963097,85.5070968 325.94037,85.2086243 325.936705,83.4310346 L325.936,82.232 L325.936,82.232 C325.936,81.2345 325.930531,80.1659063 325.923012,79.0860332 L325.913223,77.7885996 C325.899441,76.0616777 325.88391,74.3671309 325.880629,72.949959 L325.88049,71.8592653 C325.883429,70.8571429 325.904,70.672 326.048,70.528 C326.216,70.36 326.72,70.304 329.072,70.304 C331.704,70.304 332.824,71.032 333.496,72.376 C334,73.384 334.224,75.064 334.224,77.584 C334.224,79.936 333.888,81.84 333.16,83.296 C332.32,84.976 330.528,85.984 328.288,85.984 Z M371.952,102.672 C378.896,102.672 384.328,100.096 387.856,96.568 C391.16,93.264 393.232,89.008 393.232,84.64 C393.232,79.992 391.496,76.184 388.584,73.272 C385.056,69.744 380.184,67.392 373.52,67.392 C366.856,67.392 361.088,69.968 357.224,73.832 C354.032,77.024 352.128,81 352.128,85.2 C352.128,90.24 353.808,93.544 356.72,96.456 C359.968,99.704 366.072,102.672 371.952,102.672 Z M372.456,100.152 C370.608,100.152 369.376,99.312 368.424,97.408 C367.416,95.392 367.08,92.088 367.08,86.264 C367.08,79.264 367.752,74.728 368.928,72.376 C369.768,70.696 371.112,69.632 373.072,69.632 C375.2,69.632 376.376,70.304 377.16,71.872 C378.039709,73.6314182 378.325615,76.2005686 378.33572,84.1375076 L378.336,84.584 C378.336,91.808 377.664,95.672 376.712,97.576 C375.76,99.48 374.136,100.152 372.456,100.152 Z M431.128,102.112 C431.52,102.112 431.688,101.944 431.688,101.664 C431.912,98.416 432.08,90.24 432.136,86.432 C432.136,86.096 430.008,86.04 429.896,86.32 C427.824,90.52 424.464,96.12 422.392,98.192 C421.44,99.144 420.152,99.368 417.912,99.368 C416.568,99.368 415.448,99.256 415.224,99.032 C415.035368,98.8433684 415.005584,98.4561773 415.000882,94.1584079 L415.000001,91.6664565 C415,91.5476147 415,91.426807 415,91.304 L415.000004,90.7185096 L415.000004,90.7185096 L415.000896,88.15008 C415.00448,84.4496 415.0224,82.4336 415.112,78.088 C415.192,73.968 415.272,72.1337143 415.392816,71.3402449 L415.413935,71.214185 C415.457003,70.9815277 415.505143,70.8628571 415.56,70.808 C415.784,70.584 416.4,70.528 419.592,70.472 C419.816,70.472 419.872,68.064 419.648,68.064 C417.709538,68.0209231 413.716639,68.0109822 410.906443,68.0086882 L409.071134,68.0080032 C408.970308,68.008 408.874462,68.008 408.784,68.008 C406.152,68.008 400.496,67.896 398.032,67.784 C397.808,67.784 397.752,70.192 397.976,70.192 C400.944,70.36 401.448,70.36 401.728,70.64 C401.967167,70.8791667 402.002045,71.5677674 402.007132,75.1836476 L402.008,77.304 C402.008,83.016 401.952,89.456 401.84,96.68 C401.84,98.136 401.728,99.032 401.504,99.256 C401.28,99.48 400.888,99.48 397.696,99.592 C397.416,99.592 397.36,102.056 397.64,102.056 C400.2192,102.0144 404.776183,102.003703 409.497392,102.000952 L413.849246,102.000001 C414.028114,102 414.2064,102 414.384,102 L415.679207,101.999192 C416.55075,101.998191 417.436679,101.996415 418.326431,101.994776 L420.33037,101.991704 L420.33037,101.991704 L422.320483,101.991396 C425.610963,101.994469 428.732444,102.018667 431.128,102.112 Z M437.16,102.056 C441.392,101.964 447.362143,101.947571 453.146056,101.944638 L456.13673,101.944005 C456.382857,101.944 456.628,101.944 456.872,101.944 L457.262612,101.944001 L457.262612,101.944001 L460.733328,101.944818 C460.8397,101.944892 460.945493,101.944973 461.050811,101.945062 L461.677883,101.945686 C464.897118,101.94942 467.864178,101.961422 473.728,102 C474.008,102 474.12,101.944 474.12,101.72 C474.232,97.408 474.344,92.032 474.4,87.832 C474.4,87.44 472.048,87.272 471.992,87.496 C470.368,91.976 468.296,95.952 466.28,97.968 C465.104,99.144 463.76,99.592 461.24,99.592 L460.568,99.592 C460.03329,99.592 459.405344,99.5658939 458.765007,99.5242684 L458.283694,99.4903049 C456.599809,99.3624058 454.969806,99.1458065 454.856,99.032 C454.668,98.844 454.637786,98.2615357 454.63293,94.0070316 L454.632875,89.815625 C454.6355,88.448 454.646,86.978 454.688,85.76 C455.248,85.704 456.256,85.704 456.704,85.704 C458.552,85.704 459.448,85.928 460.12,86.6 C460.848,87.328 461.968,89.624 462.976,92.2 C463.088,92.48 464.768,92.48 464.768,92.144 C464.544,88.56 464.376,82.68 464.544,77.192 C464.544,76.8 462.808,76.744 462.696,77.08 C462.024,79.152 461.296,80.944 460.456,81.784 C459.504,82.736 458.328,83.128 456.368,83.128 L455.99525,83.127125 C455.5595,83.1245 454.982,83.114 454.688,83.072 L454.8,76.296 L454.912,70.472 L455.00135,70.4595676 L455.00135,70.4595676 L455.175728,70.4375321 C455.694926,70.3768548 456.206898,70.3636641 457.473493,70.3607965 L458.438047,70.3600064 C458.529136,70.36 458.623077,70.36 458.72,70.36 C462.696,70.36 463.928,70.696 466.056,72.824 C467.512,74.28 469.92,77.864 471.656,81.056 C471.824,81.392 473.672,81.392 473.672,81.168 C473.722909,79.6407273 473.773818,77.5812231 473.835246,75.4470383 L473.873449,74.1612261 C473.939504,72.0154711 474.018182,69.8865455 474.12,68.232 C474.12,67.952 474.008,67.784 473.728,67.784 C468.746545,67.9774545 463.973934,68.0038347 460.023404,68.007432 L457.582528,68.0072278 C455.909336,68.0040103 452.134055,67.9907383 448.263341,67.9674117 L447.333565,67.9616202 C442.995647,67.9336926 438.73939,67.8931525 437.384,67.84 C436.88,67.84 437.048,70.024 437.272,70.08 C440.744,70.248 441.08,70.36 441.248,70.528 C441.472,70.752 441.472,71.76 441.528,77.64 C441.584,82.568 441.64,85.592 441.64,88.504 C441.64,94.272 441.248,99.032 441.08,99.2 C440.912,99.368 440.576,99.48 437.104,99.536 C436.768,99.536 436.88,102.056 437.16,102.056 Z" id="MAYPOLE" fill="#000000" fill-rule="nonzero"></path>
                <path d="M183.548,55.056 C183.744,55.056 183.772,53.88 183.632,53.852 C181.644,53.628 181.448,53.572 181.336,53.46 C181.224,53.348 181.14,53.096 181.14,52.396 C181.14,48.952 181.196,45.564 181.28,42.288 C181.308,39.6 181.308,39.264 181.364,39.208 C181.42,39.152 181.532,39.152 181.756,39.152 C182.568,39.152 182.988,39.376 183.436,39.824 C183.968,40.356 184.668,41.56 186.544,45.536 C186.6,45.676 187.636,45.732 187.636,45.508 C187.692,42.96 187.72,40.02 187.664,38.06 C187.664,37.92 187.552,37.864 187.272,37.892 C182.550316,37.9185263 177.853762,38.0204432 176.18209,38.0310978 L175.932,38.032 C175.410267,38.032 174.152444,38.0162267 172.835209,37.9960719 L172.2255,37.9865 C170.703,37.962 169.24,37.934 168.876,37.92 C168.512,37.92 168.344,38.144 168.344,38.368 C168.26,40.076 168.204,42.932 168.008,45.536 C168.008,45.76 169.044,45.788 169.1,45.648 C169.66,44.388 171.62,40.748 172.572,39.796 C172.992,39.376 173.44,39.152 174.196,39.152 C174.392,39.152 174.588,39.152 174.644,39.208 C174.68656,39.25056 174.696774,39.373984 174.699226,40.2788777 L174.699996,41.1683907 C174.7,41.2402176 174.7,41.31472 174.7,41.392 C174.686737,43.3416842 174.673474,44.8013296 174.654259,46.2143519 L174.640502,47.1543257 C174.620809,48.4113906 174.595368,49.7094737 174.56,51.36 C174.532,52.984 174.392,53.46 174.28,53.572 C174.168,53.684 173.944,53.712 171.872,53.824 C171.732,53.824 171.788,55.056 171.928,55.056 C175.176,54.944 180.104,54.916 183.548,55.056 Z M201.202,55.028 C201.426,55.028 201.398,53.88 201.258,53.88 C200.53,53.852 200.082,53.824 199.998,53.74 C199.886,53.628 199.802,53.18 199.802,52.144 C199.802,50.688 199.83,48.168 199.858,46.768 C199.914,46.712 200.474,46.712 200.922,46.712 L204.282,46.712 C204.282,48.7 204.254,49.4 204.254,50.66 C204.254,53.208 204.17,53.488 204.058,53.6 C203.946,53.712 203.47,53.768 202.658,53.824 C202.546,53.824 202.49,54.944 202.602,55 C203.498757,55.0113514 205.154827,55.0181008 206.883657,55.0202484 L209.281781,55.0202484 C210.929004,55.0181008 212.328595,55.0113514 212.794,55 C212.99,55 213.046,53.824 212.878,53.796 C211.59,53.74 211.226,53.712 211.114,53.6 C210.979833,53.4658333 210.897097,53.1002292 210.890435,51.3942161 L210.89,51.164 C210.89,50.968 210.890571,50.776 210.891551,50.5852245 L210.895551,50.0137959 C210.903714,49.0582857 210.918,48.064 210.918,46.684 L210.91884,45.908848 C210.92388,43.67512 210.9516,42.2488 211.002,41.14 C211.058,39.74 211.198,39.348 211.31,39.236 C211.422,39.124 212.15,39.096 213.102,39.096 C213.158,39.096 213.186,37.92 213.074,37.92 L213.032071,37.92 L213.032071,37.92 L212.899902,37.9206969 C212.246818,37.9242809 210.13624,37.940608 207.84248,37.944192 L206.107724,37.9440924 C204.954871,37.9419022 203.835867,37.9349333 202.91,37.92 C202.714,37.92 202.742,39.068 202.882,39.068 C203.75,39.068 204.086,39.124 204.17,39.208 C204.254,39.292 204.31,39.88 204.31,41.644 L204.30999,41.8348061 L204.30999,41.8348061 L204.309347,42.5721633 C204.307714,43.4982857 204.302,44.704 204.282,45.424 C204.135,45.466 203.72025,45.4765 203.191313,45.479125 L202.11828,45.4790398 C200.853556,45.4741235 200.355778,45.452 199.858,45.452 C199.838167,44.8371667 199.832382,43.0843958 199.830695,42.0047876 L199.83,41.14 C199.83,39.796 199.858,39.404 199.97,39.292 C200.11,39.152 200.558,39.152 201.398,39.124 C201.538,39.124 201.51,37.976 201.398,37.976 C200.782,37.9872 200.02488,37.9928 199.204144,37.994368 L198.078935,37.994207 C197.98316,37.9940174 197.887025,37.9937866 197.790636,37.9935169 L197.210108,37.9914471 C194.591681,37.9801807 191.943238,37.9436023 191.357387,37.924048 L191.262,37.92 L191.262,37.92 C191.066,37.92 191.066,39.04 191.178,39.096 C192.466,39.152 192.886,39.208 192.998,39.32 C193.138,39.46 193.25,40.888 193.25,42.736 L193.25,46.292 L193.249993,46.5721036 L193.249993,46.5721036 L193.249137,47.5556821 C193.24603,48.9046805 193.231739,49.8212174 193.166,52.144 C193.138,52.984 193.054,53.488 192.942,53.6 C192.83,53.712 192.606,53.712 191.178,53.74 C191.01,53.74 190.982,54.944 191.15,54.972 C191.173172,54.9797241 191.417948,54.9831867 191.799682,54.9841511 L192.282448,54.984275 C192.814067,54.9835311 193.478852,54.9804623 194.156283,54.9775796 L194.608455,54.9757128 C194.909389,54.9745234 195.207531,54.973481 195.4923,54.9728059 L195.908101,54.9720964 C195.975289,54.9720333 196.04131,54.972 196.106,54.972 C197.8308,54.972 200.701982,55.0207822 201.145436,55.0272865 L201.202,55.028 L201.202,55.028 Z M215.916,55.028 C217.919556,54.9844444 220.702272,54.9747654 223.447347,54.9726145 L225.198816,54.9720096 C225.391062,54.972 225.582222,54.972 225.772,54.972 L226.083469,54.9720013 L226.083469,54.9720013 L228.247184,54.9729298 C229.829321,54.9748929 231.312,54.981 234.2,55 C234.34,55 234.396,54.972 234.396,54.86 C234.452,52.704 234.508,50.016 234.536,47.916 C234.536,47.72 233.36,47.636 233.332,47.748 C232.52,49.988 231.484,51.976 230.476,52.984 C229.888,53.572 229.216,53.796 227.956,53.796 L227.62,53.796 C226.584,53.796 224.848,53.6 224.764,53.516 C224.6744,53.4264 224.65648,53.1576 224.652896,51.290336 L224.652,49.568 C224.652,48.728 224.652,47.692 224.68,46.88 C224.96,46.852 225.464,46.852 225.688,46.852 C226.612,46.852 227.06,46.964 227.396,47.3 C227.76,47.664 228.32,48.812 228.824,50.1 C228.88,50.24 229.72,50.24 229.72,50.072 C229.608,48.28 229.524,45.34 229.608,42.596 C229.608,42.4 228.74,42.372 228.684,42.54 C228.348,43.576 227.984,44.472 227.564,44.892 C227.088,45.368 226.5,45.564 225.52,45.564 C225.324,45.564 224.876,45.564 224.68,45.536 L224.736,42.148 L224.792,39.236 C225.086,39.194 225.30125,39.1835 225.922062,39.180875 L226.471282,39.1800137 C226.542438,39.18 226.61725,39.18 226.696,39.18 C228.684,39.18 229.3,39.348 230.364,40.412 C231.092,41.14 232.296,42.932 233.164,44.528 C233.248,44.696 234.172,44.696 234.172,44.584 C234.228,42.904 234.284,39.936 234.396,38.116 C234.396,37.976 234.34,37.892 234.2,37.892 C231.728,37.988 229.358857,38.0017143 227.392327,38.0036735 L225.881387,38.0030693 C223.738936,37.997795 217.305684,37.9701053 216.028,37.92 C215.776,37.92 215.86,39.012 215.972,39.04 C217.563333,39.117 217.837111,39.1704722 217.936391,39.2435509 L217.96,39.264 L217.96,39.264 C218.072,39.376 218.072,39.88 218.1,42.82 C218.128,45.284 218.156,46.796 218.156,48.252 C218.156,51.136 217.96,53.516 217.876,53.6 C217.792,53.684 217.624,53.74 215.888,53.768 C215.72,53.768 215.776,55.028 215.916,55.028 Z" id="THE" fill="#000000" fill-rule="nonzero"></path>
                <path d="M167.304,128.016 C168.323077,127.993846 169.694911,127.98703 171.090341,127.984932 L172.481446,127.984015 C172.634178,127.984 172.785846,127.984 172.936,127.984 L173.183184,127.984002 L173.183184,127.984002 L174.464352,127.984686 C175.32724,127.98596 176.1712,127.9896 177.752,128 C177.832,128 177.864,127.984 177.864,127.92 C177.896,126.688 177.928,125.152 177.944,123.952 C177.944,123.84 177.272,123.792 177.256,123.856 C176.792,125.136 176.2,126.272 175.624,126.848 C175.288,127.184 174.904,127.312 174.184,127.312 L173.992,127.312 C173.4,127.312 172.408,127.2 172.36,127.152 C172.310769,127.102769 172.299408,126.958864 172.296787,125.999301 L172.296,124.896 C172.296,124.416 172.296,123.824 172.312,123.36 C172.472,123.344 172.76,123.344 172.888,123.344 C173.416,123.344 173.672,123.408 173.864,123.6 C174.072,123.808 174.392,124.464 174.68,125.2 C174.712,125.28 175.192,125.28 175.192,125.184 C175.128,124.16 175.08,122.48 175.128,120.912 C175.128,120.8 174.632,120.784 174.6,120.88 C174.408,121.472 174.2,121.984 173.96,122.224 C173.688,122.496 173.352,122.608 172.792,122.608 C172.68,122.608 172.424,122.608 172.312,122.592 L172.344,120.656 L172.376,118.992 C172.544,118.968 172.667,118.962 173.02175,118.9605 L173.29562,118.960019 C173.348,118.96 173.404,118.96 173.464,118.96 C174.6,118.96 174.952,119.056 175.56,119.664 C175.976,120.08 176.664,121.104 177.16,122.016 C177.208,122.112 177.736,122.112 177.736,122.048 C177.768,121.088 177.8,119.392 177.864,118.352 C177.864,118.272 177.832,118.224 177.752,118.224 C176.4336,118.2752 175.1664,118.28544 174.089664,118.287488 L172.831603,118.28702 C171.470531,118.283102 168.067429,118.267429 167.368,118.24 C167.224,118.24 167.272,118.864 167.336,118.88 C168.328,118.928 168.424,118.96 168.472,119.008 C168.536,119.072 168.536,119.36 168.552,121.04 C168.568,122.448 168.584,123.312 168.584,124.144 C168.584,125.792 168.472,127.152 168.424,127.2 C168.376,127.248 168.28,127.28 167.288,127.296 C167.192,127.296 167.224,128.016 167.304,128.016 Z M185.748,128.16 C188.132,128.16 190.1,126.896 190.1,124.688 C190.1,123.808 189.908,123.264 189.46,122.816 C188.932,122.288 188.212,121.904 186.18,121.488 C184.356,121.12 183.492,120.8 183.492,119.984 C183.492,119.76 183.572,119.504 183.764,119.312 C184.052,119.024 184.484,118.848 185.252,118.848 C186.436,118.848 187.076,119.216 187.652,119.792 C188.116,120.256 188.388,120.592 188.836,121.296 C188.884,121.376 189.46,121.36 189.46,121.28 C189.476,120.288 189.556,119.136 189.636,118.144 C189.636,118.064 189.156,117.968 189.076,118.048 C188.804,118.336 188.372,118.832 188.212,118.832 C188.036,118.832 187.284,118.144 185.412,118.144 C182.58,118.144 181.012,119.76 181.012,121.472 C181.012,122.432 181.22,122.928 181.716,123.424 C182.356,124.064 183.444,124.528 185.076,124.864 C187.012,125.264 187.588,125.504 187.588,126.128 C187.588,126.496 187.492,126.752 187.252,126.992 C186.98,127.264 186.468,127.44 185.796,127.44 C184.532,127.44 183.428,126.928 182.612,126.112 C182.1,125.6 181.764,125.168 181.3,124.416 C181.252,124.352 180.724,124.384 180.724,124.496 C180.868,125.968 180.868,126.928 180.836,128.048 C180.836,128.128 181.364,128.144 181.396,128.08 C181.62,127.664 181.924,127.312 182.132,127.312 C182.404,127.312 184.052,128.16 185.748,128.16 Z M201.36,128.032 C201.472,128.032 201.488,127.36 201.408,127.344 C200.272,127.216 200.16,127.184 200.096,127.12 C200.032,127.056 199.984,126.912 199.984,126.512 C199.984,124.544 200.016,122.608 200.064,120.736 C200.08,119.2 200.08,119.008 200.112,118.976 C200.144,118.944 200.208,118.944 200.336,118.944 C200.8,118.944 201.04,119.072 201.296,119.328 C201.6,119.632 202,120.32 203.072,122.592 C203.104,122.672 203.696,122.704 203.696,122.576 C203.701818,122.311273 203.707107,122.03914 203.711675,121.764316 L203.723023,120.936475 C203.733289,119.972231 203.732364,119.032727 203.712,118.32 C203.712,118.24 203.648,118.208 203.488,118.224 C200.843429,118.238857 198.212653,118.295102 197.209796,118.303061 L197.008,118.304 C196.32,118.304 193.392,118.256 192.976,118.24 C192.768,118.24 192.672,118.368 192.672,118.496 C192.624,119.472 192.592,121.104 192.48,122.592 C192.48,122.72 193.072,122.736 193.104,122.656 C193.424,121.936 194.544,119.856 195.088,119.312 C195.328,119.072 195.584,118.944 196.016,118.944 C196.128,118.944 196.24,118.944 196.272,118.976 C196.294588,118.998588 196.301232,119.061038 196.303186,119.484118 L196.303993,120.039288 C196.304,120.09755 196.304,120.159059 196.304,120.224 C196.288,122.576 196.272,123.68 196.224,125.92 C196.208,126.848 196.128,127.12 196.064,127.184 C196.021333,127.226667 195.950222,127.248 195.556741,127.276444 L195.331775,127.291391 C195.162074,127.301926 194.951111,127.313778 194.688,127.328 C194.608,127.328 194.64,128.032 194.72,128.032 C196.576,127.968 199.392,127.952 201.36,128.032 Z M207.484,128.16 C208.492,128.16 209.372,127.408 209.372,126.32 C209.372,125.264 208.764,124.32 207.548,124.32 C206.476,124.32 205.676,125.152 205.676,126.272 C205.676,127.344 206.38,128.16 207.484,128.16 Z M218.833388,128.000886 L219.495714,128.00006 C219.577082,128.00002 219.661143,128 219.748,128 L219.932947,128.000088 L219.932947,128.000088 L220.354618,128.000746 C221.635658,128.003428 223.585196,128.012572 224.542819,128.015254 L224.948,128.016 L224.948,128.016 C224.996,128.016 225.028,127.968 225.044,127.888 C225.204,126.72 225.444,125.296 226.052,123.712 C226.116,123.568 225.54,123.392 225.492,123.504 C225.124,124.304 224.884,125.136 224.756,125.248 C224.726133,125.2928 224.431449,125.351538 222.245873,125.35917 L221.748,125.36 C221.124,125.36 220.196,125.344 219.892,125.328 C219.892,125.328 219.876,125.312 219.892,125.312 C221.172,123.984 223.892,123.664 225.092,122.448 C225.54,122.016 225.764,121.456 225.764,120.912 C225.764,120.288 225.508,119.776 225.012,119.28 C224.372,118.64 223.22,118.128 221.3,118.128 C219.396,118.128 218.532,118.656 217.956,119.216 C217.428,119.76 217.108,120.496 217.108,121.184 C217.108,122.272 217.892,123.056 218.932,123.056 C219.844,123.056 220.532,122.352 220.532,121.392 C220.532,120.816 220.26,120.32 219.78,120.08 C219.204,119.792 218.516,120.112 218.388,120.048 C218.26,119.984 218.372,119.712 218.644,119.44 C219.044,119.04 219.636,118.752 220.292,118.752 C220.996,118.752 221.332,119.024 221.54,119.44 C221.7,119.76 221.78,120.16 221.78,120.816 C221.78,122.512 221.572,122.816 220.516,123.872 C220.18,124.208 219.54448,124.78016 218.879008,125.394944 L218.433881,125.808991 C218.138116,126.0864 217.848267,126.363733 217.588,126.624 C216.964,127.248 216.66,127.584 216.628,127.648 C216.612,127.68 216.756,128.016 216.788,128.016 L216.91502,128.015114 C217.143592,128.012315 217.510939,128.003685 218.833388,128.000886 Z M233.872,128.192 C235.104,128.192 236.72,127.52 237.696,126.544 C238.528,125.712 239.04,124.672 239.04,123.152 C239.04,121.856 238.56,120.752 237.648,119.84 C236.608,118.8 235.28,118.112 233.76,118.112 C232.416,118.112 230.992,118.896 230.144,119.744 C229.216,120.672 228.768,121.872 228.768,123.216 C228.768,124.608 229.248,125.744 230.24,126.736 C231.136,127.632 232.576,128.192 233.872,128.192 Z M233.824,127.488 C233.584,127.488 233.312,127.44 233.056,126.928 C232.79488,126.40576 232.651725,125.691827 232.64069,123.512182 L232.64,123.232 C232.64,120.992 232.768,119.984 233.088,119.344 C233.296,118.928 233.52,118.736 233.84,118.736 C234.256,118.736 234.56,119.008 234.8,119.488 C235.184,120.256 235.184,121.6 235.184,123.488 C235.184,125.104 235.056,126.224 234.752,126.832 C234.528,127.28 234.192,127.488 233.824,127.488 Z M248.908,128.016 C248.972,128.016 248.972,127.28 248.924,127.28 L248.592319,127.279147 C247.880373,127.275449 247.239733,127.259733 247.212,127.232 C247.18,127.2 247.164,127.136 247.164,126.976 C247.15,126.514 247.142125,125.895813 247.140375,125.177711 L247.140375,124.539039 C247.142125,123.768438 247.15,122.914 247.164,122.032 C247.18,120.592 247.18,119.376 247.228,118.112 C247.228,118.064 247.132,118.064 247.116,118.064 C245.436,118.336 243.692,118.512 241.74,118.656 C241.66,118.656 241.724,119.376 241.756,119.376 C243.004,119.328 243.468,119.248 243.5,119.28 C243.5128,119.2928 243.51792,119.46432 243.519456,119.814016 L243.519235,120.640101 C243.51859,120.925357 243.517663,121.258075 243.516967,121.640688 L243.516,122.656 L243.516,122.656 L243.515992,122.993516 L243.515992,122.993516 L243.515023,124.296703 C243.512875,125.444312 243.506,126.435 243.484,127.04 C243.484,127.088 243.484,127.216 243.452,127.248 C243.42,127.28 242.46,127.328 241.612,127.328 C241.532,127.328 241.532,128.016 241.596,128.016 C242.828,128 243.516,127.984 245.356,127.984 C247.276,127.984 247.532,128.016 248.908,128.016 Z M256.312,128.048 C256.424,128.032 256.456,127.968 256.472,127.76 C256.616941,124.689882 256.794436,123.855114 257.093847,123.17354 L257.159906,123.029074 C257.205232,122.933315 257.253176,122.837647 257.304,122.736 C257.96,121.424 259.272,119.888 259.992,118.08 C260.056,118.032 259.4,117.84 259.336,117.888 C259.256,118.128 259.128,118.4 259.064,118.432 C259.003765,118.462118 258.929356,118.534754 258.000399,118.543196 L257.816,118.544 C256.168,118.544 253.816,118.48 251.528,118.208 C251.416,118.192 251.416,118.224 251.416,118.4 C251.416,119.68 251.368,121.36 251.304,122.832 C251.304,122.896 251.992,122.928 251.992,122.864 C252.056,122.112 252.072,121.728 252.136,121.04 C252.152,120.976 252.168,120.96 252.328,120.976 C253.592,121.056 255.848,121.104 257.496,121.136 L257.496,121.152 C256.472,122.976 253.048,124.848 252.872,127.968 C252.872,128.048 252.872,128.064 252.888,128.064 C253.608,128.064 255.736,128.032 256.312,128.048 Z" id="EST.2017" fill="#121212" fill-rule="nonzero"></path>
            </g>
        </g>
    </g>
</svg>